<?xml version="1.0"?>
<svg xmlns:rdf="http://www.w3.org/1999/02/22-rdf-syntax-ns#" xmlns="http://www.w3.org/2000/svg" xmlns:cc="http://creativecommons.org/ns#" xmlns:dc="http://purl.org/dc/elements/1.1/" xmlns:svg="http://www.w3.org/2000/svg" id="svg2" viewBox="0 0 1052.4 744.09" version="1.1">
  <g id="layer2">
    <path id="path2997" fill-rule="evenodd" d="m320.67 509.9c-0.0117-0.00037-0.0231-0.007-0.0344-0.0203-0.0109-0.0172-0.0215-0.0426-0.0318-0.0763-0.0204-0.0667-0.0397-0.1658-0.0574-0.29694-0.0348-0.25782-0.0639-0.63987-0.0849-1.1442-0.0403-0.97168-0.0509-2.3986-0.0104-4.2675 0.0744-3.4301 0.30997-8.3552 0.93387-14.683 0.54041-5.4828 1.36-12.028 2.8164-19.521 1.2023-6.1921 2.8166-13.064 5.4563-20.362 2.0387-5.6623 4.6984-11.7 8.9775-17.279 1.7254-2.247 3.76-4.4027 6.1982-6.2423 2.2078-1.6643 4.759-3.0213 7.5835-3.8434 2.8577-0.81933 5.9057-1.0547 8.9316-0.72226 3.4717 0.3865 6.8678 1.4367 10.072 2.9013 4.382 2.0066 8.5262 4.65 12.465 7.7404 3.939 3.0905 7.6727 6.6286 11.263 10.339 6.8122 7.0128 12.404 15.659 16.786 25.199 4.1562 9.0364 7.3414 18.807 10.269 28.889 2.8012 9.6235 5.3807 19.569 8.6037 29.534 2.9991 9.2495 6.5318 18.557 11.541 27.231 2.2855 3.986 4.2243 8.1118 6.1304 12.199 1.9061 4.0871 3.7796 8.1356 5.976 11.945 2.044 3.5165 4.2688 6.847 7.0478 9.4651 2.5242 2.3806 5.5624 4.2352 8.7998 4.9441 16.207 3.7465 33.146 6.7089 50.723 8.889s35.793 3.5776 54.518 4.2614c17.677 0.64416 35.811 0.65129 54.352 0.0809 18.541-0.57035 37.489-1.7183 56.787-3.3405 35.152-2.9542 71.438-7.5054 108.77-13.075 37.333-5.5697 75.712-12.157 115.08-18.852 0.00002-0.00001 0.00003-0.00001 0.00005-0.00001 2.0176-0.29913 4.0526-1.3965 5.8241-2.8773 0.00002-0.00001 0.00004-0.00002 0.00005-0.00004 1.954-1.6294 3.6122-3.8839 5.1884-6.3847 0.00002-0.00002 0.00003-0.00004 0.00004-0.00006 3.2835-5.254 5.5962-11.502 8.4241-17.951 4.5985-10.599 8.6173-21.438 10.913-32.611 2.1902-10.814 2.869-21.985 0.28345-32.361-0.0405-1.2382-1.6559-2.6968-3.471-4.7445-0.00001-0.00002-0.00003-0.00004-0.00005-0.00006-2.0306-1.8876-4.6124-4.37-6.5868-8.139-1.994-4.264-3.0691-8.6798-3.6777-12.929 0-0.00003-0.00001-0.00006-0.00001-0.00009-0.64689-4.3564-0.92852-8.5829-1.3004-12.62 0-0.00003-0.00001-0.00006-0.00001-0.00008-0.38158-3.9344-0.79488-7.6821-1.7466-11.093-0.91044-3.2052-2.2189-6.1914-4.1639-8.4338-0.00001-0.00002-0.00003-0.00003-0.00004-0.00005-10.72-12.801-24.299-23.385-39.172-31.98-15.143-8.7434-31.648-15.483-48.651-21.33-9.7834-3.3799-19.748-6.4351-29.825-9.3773-25.066-7.319-50.396-13.852-74.89-22.829-14.588-13.134-28.712-26.482-42.891-39.418-14.178-12.935-28.411-25.457-43.164-36.997-14.092-11.047-28.677-21.138-43.984-29.472-15.545-8.4664-31.867-15.116-48.59-19.398-22.815-5.8568-45.897-9.5231-68.748-12.38-29.64-3.6986-58.865-5.7411-87.433-6.4853-32.237-0.83749-63.622 0.004-93.839 2.7666-15.408 1.4115-30.516 3.2957-45.218 5.803s-28.999 5.6378-42.805 9.4967c-10.698 2.8985-20.071 9.815-28.448 17.445-11.769 10.813-21.781 22.87-30.58 35.392-8.7993 12.523-16.386 25.512-23.193 38.364-3.132 5.8973-6.7845 11.227-10.357 16.368-3.5728 5.1414-7.0662 10.095-9.9718 15.184-3.0722 5.3804-5.4564 11.012-6.865 16.758-1.8409 7.4096-2.1663 15.072-1.6892 22.538 0.06614 1.967-0.49618 3.7026-1.4397 5.0416-0.95485 1.3746-2.0057 2.4027-2.946 3.232-1.001 0.91867-1.922 1.6937-2.6298 2.4657-0.63654 0.74413-1.1546 1.3643-1.2784 1.9054-2.8493 8.8389-4.2239 17.854-4.2 26.574-0.4641 5.3427-0.44096 10.591-0.14617 15.731s0.86143 10.171 1.5258 15.081c-0.45757-1.5766-1.129-3.2944-1.7952-5.0867 0.17363-2.3314 0.24431-4.6773 0.30946-7.0266 0.15964-5.8559 0.26557-11.613 0.72356-17.223 0.49111-6.1244 1.3916-12.137 3.2399-17.722 0.000004-0.00001 0.000007-0.00002 0.000011-0.00004 0.87421-2.6944 2.0395-5.3131 3.5269-7.6814s3.2968-4.4864 5.4449-6.2194c1.4259-1.1494 3.0881-2.1089 4.9482-2.6563 1.6148-0.46151 3.3162-0.52082 4.9413-0.17236 1.69 0.38303 3.1806 1.1325 4.4445 2.0517 1.5086 1.0902 2.762 2.3667 3.838 3.6802 2.8529 3.4771 4.802 7.2478 6.4245 10.834 2.1808 4.794 3.7909 9.4243 5.1428 13.741 1.7996 5.744 3.14 10.971 4.2088 15.604 1.0689 4.6331 1.8637 8.6737 2.4818 12.078 0.74947 4.1265 1.2263 7.3265 1.5016 9.5485 0.14805 1.1952 0.23696 2.1082 0.27338 2.7316 0.0188 0.32197 0.0236 0.56686 0.0151 0.73362-0.004 0.0847-0.012 0.14932-0.0231 0.19362-0.0235 0.0252-0.0346 0.0431-0.0398 0.0548-0.005 0.0116-0.005 0.0172-0.005 0.0175v0.00001-0.00001c-0.00007-0.00036-0.001-0.006-0.01-0.0152-0.009-0.009-0.0248-0.023-0.055-0.0396-0.0244-0.0385-0.0522-0.0971-0.0832-0.17578-0.0612-0.15501-0.13548-0.38768-0.22352-0.69721-0.17048-0.59934-0.39241-1.4863-0.67245-2.6543-0.52063-2.1712-1.2388-5.3126-2.2239-9.37-0.81331-3.3488-1.7991-7.3242-3.05-11.872-1.251-4.5474-2.7647-9.6681-4.7216-15.268-1.4715-4.209-3.1775-8.6865-5.4091-13.247-1.6839-3.4236-3.5867-6.9152-6.2177-9.9288-0.98561-1.1266-2.0457-2.1702-3.2382-2.9734-0.98887-0.65983-2.0459-1.1811-3.1196-1.3738-0.99713-0.19781-2.0828-0.12633-3.0991 0.18739-1.2252 0.36171-2.4131 1.1183-3.557 2.046-3.4827 2.8217-5.8278 7.2624-7.394 12.149-0.000003 0.00001-0.000007 0.00002-0.00001 0.00003-1.6098 5.1347-2.3247 10.798-2.7165 16.75-0.34864 5.4245-0.35145 11.087-0.41673 16.982-0.025 2.3613-0.05985 4.7824-0.20257 7.2612-0.90615 1.8566-1.8981 3.8307-3.2007 5.876-1.4793-4.9649-2.9152-10.103-4.134-15.415-1.2188-5.3125-2.2207-10.8-2.7903-16.461-0.14888-9.3087 1.1825-18.939 4.104-28.408 0.59711-1.7458 1.5334-3.1245 2.5301-4.1602 1.0226-1.1136 2.0526-2.0205 2.9468-2.8512 0.84611-0.81949 1.577-1.496 1.9758-2.1618 0.28477-0.51241 0.49773-0.99137 0.40421-1.2549-0.62429-7.9215-0.34644-16.213 1.575-24.463 1.5147-6.4215 4.052-12.644 7.3321-18.508 3.0619-5.4734 6.6101-10.64 10.117-15.79 3.5065-5.1501 6.9716-10.284 9.7746-15.748 6.7572-13.115 14.375-26.43 23.314-39.357 8.9394-12.927 19.2-25.467 31.354-36.86 8.6986-8.2202 19.058-15.809 31.542-19.472 14.077-4.0332 28.629-7.3226 43.564-9.9694 14.935-2.6469 30.252-4.6512 45.837-6.1593 30.578-2.9646 62.31-3.9778 94.859-3.2718 28.844 0.62357 58.379 2.5727 88.365 6.2097 23.081 2.7944 46.564 6.4618 69.975 12.392 17.583 4.4652 34.669 11.364 50.866 20.152 15.927 8.6435 30.99 19.005 45.401 30.279 14.799 11.602 28.974 24.105 42.985 36.935 14.011 12.831 27.858 25.988 42.052 38.841 23.485 8.524 48.207 14.741 73.093 21.892 10.004 2.8746 19.967 5.8865 29.816 9.2471 17.37 5.9535 34.458 12.969 50.386 22.149 15.696 9.0398 30.15 20.385 41.789 34.241 0.00002 0.00003 0.00005 0.00005 0.00007 0.00008 3.0437 3.7052 5.0027 7.949 6.1218 12.21 1.1686 4.3889 1.6775 8.6978 2.0353 12.783 0.00001 0.00003 0.00001 0.00006 0.00001 0.00009 0.38909 4.2173 0.64222 8.2581 1.2157 12.069 0 0.00003 0.00001 0.00005 0.00001 0.00008 0.57915 3.6997 1.3638 7.1883 2.8111 10.154 0.56267 1.5612 2.4975 3.1383 4.6361 5.4064 0.00002 0.00002 0.00004 0.00004 0.00007 0.00006 2.2722 2.0263 4.7563 5.0426 6.0715 9.3972 2.9112 12.302 2.2278 24.898-0.27935 36.661-2.5504 12.115-6.7972 23.576-11.597 34.496-2.6726 6.145-5.2179 12.799-9.1065 19.14-0.00002 0.00003-0.00003 0.00005-0.00005 0.00008-1.8496 3.0376-4.1613 6.0391-7.1413 8.6211-0.00003 0.00002-0.00005 0.00004-0.00008 0.00007-2.8831 2.492-6.4666 4.3-10.461 5.015-0.00004 0.00001-0.00007 0.00002-0.00011 0.00002-39.376 6.5872-77.85 13.053-115.34 18.487-37.49 5.4341-73.995 9.8355-109.4 12.625-19.438 1.5308-38.546 2.576-57.26 3.0336-18.713 0.45754-37.032 0.32757-54.899-0.44808-18.928-0.82025-37.361-2.3775-55.159-4.7348-17.799-2.3574-34.963-5.5145-51.391-9.4679-4.6787-1.1588-8.7767-3.6456-12.012-6.8227-3.4322-3.3755-6.0181-7.2442-8.16-11.101-2.3411-4.1832-4.2592-8.4159-6.1212-12.518-1.8619-4.1026-3.6676-8.0751-5.7419-11.76-5.2318-9.342-8.8277-19.086-11.769-28.595-3.1758-10.241-5.6457-20.259-8.2934-29.816-2.7819-10.015-5.7318-19.549-9.5974-28.247-4.0716-9.1494-9.1842-17.38-15.432-23.987-3.4714-3.6539-6.9835-7.1055-10.628-10.09-3.6445-2.9844-7.4211-5.5022-11.389-7.3732-2.8605-1.3517-5.7823-2.3378-8.6843-2.6999-2.504-0.31701-5.0112-0.18535-7.3189 0.43596-2.2908 0.6045-4.4348 1.6957-6.3398 3.0587-2.1199 1.5153-3.9558 3.3885-5.5766 5.3883-4.0506 4.9927-6.6994 10.672-8.8418 16.106-2.7462 6.9964-4.5238 13.685-5.9142 19.751-1.6802 7.3372-2.743 13.784-3.5351 19.196-0.91394 6.2466-1.4492 11.119-1.8287 14.515-0.20673 1.8503-0.36391 3.262-0.49265 4.2229-0.0668 0.49874-0.12585 0.87575-0.17944 1.1296-0.0273 0.12922-0.0531 0.22647-0.0778 0.29158-0.0125 0.0328-0.0246 0.0575-0.0365 0.0739-0.012 0.0123-0.0239 0.0183-0.0355 0.018z"/>
    <path id="path3001" fill-rule="evenodd" d="m941.32 498.37c1.0642 0.25039 1.0593 4.6089-0.028 12.022-1.0873 7.4134-3.2595 17.884-6.1909 29.995-2.092 1.0926-4.2464 2.22-6.4531 3.374-2.509 0.88362-5.991 1.6926-10.333 0.98982-2.8612-0.49996-5.736-1.8389-8.1254-4.0637-1.3093-1.219-2.4522-2.6862-3.3579-4.3822-2.1878-4.7214-2.7216-9.6386-2.2778-14.054 0.43374-4.8463 1.8798-9.3289 3.9358-13.148 1.4764-2.4588 3.2591-4.2178 5.05-5.5328s3.5904-2.1868 5.2061-2.8244c2.4646-1.1156 4.7326-1.6956 6.7282-2.1135 2.758-0.59621 5.2031-0.92117 7.2905-1.1071 5.2858-0.31488 8.367-0.0616 8.5534 0.83508l0.002 0.01s0.00002 0 0.002 0.01v0.00001c0.14478 0.90512-2.6144 2.3382-7.4876 4.0755-1.8754 0.73305-4.0424 1.5483-6.3766 2.5395-1.7595 0.75265-3.5569 1.5178-5.0945 2.5358-1.3142 0.92437-2.6492 1.8025-3.7375 2.6894-1.0883 0.88694-1.9297 1.7822-2.1573 2.797v0.00001c-1.2796 2.9806-2.1201 6.3703-2.2751 9.9105-0.09 3.1872 0.27166 6.428 1.6257 9.0331 0.14272 0.47275 0.49888 0.91139 1.0021 1.3137 0.91837 0.73416 2.2952 1.3296 3.6655 1.7767 0.98266 0.48898 2.9425-0.16929 5.4748-0.6055 1.0413 0.12958 2.08 0.24992 3.1193 0.35485 2.439-10.713 4.8814-19.854 7.066-26.347 2.1846-6.4924 4.1092-10.334 5.1733-10.083z"/>
    <path id="path3005" fill-rule="evenodd" d="m610.93 519.14c-0.009-0.25189 0.41158-0.55561 1.3285-0.64367 0.45845-0.044 1.0384-0.0258 1.7109 0.11646 0.67256 0.14221 1.4391 0.41005 2.2227 0.85665 1.4788 0.82692 3.0847 2.2094 4.4574 4.089v0.00001c1.0253 1.3582 2.0234 3.0116 2.8031 4.9852 0.77965 1.9736 1.342 4.2689 1.3986 6.8571 0.0466 3.3046-0.43365 6.9048-1.5766 10.599-1.143 3.6938-2.9511 7.4816-5.4307 11.053-2.0042 2.9709-4.6371 5.9193-8.1635 8.2887-2.9871 2.0373-6.8097 3.4014-11.137 3.2571-14.864-0.70651-31.61-1.6914-49.309-2.9316-0.0397-0.003-0.0794-0.006-0.11905-0.008-2.9502-0.3086-5.4169-1.5045-7.1954-3.2174-2.0106-1.9168-3.3788-4.0314-4.2859-6.055-2.3496-5.066-3.2817-10.31-3.4728-15.206-0.30091-4.9805 0.1891-10.235 2.0381-15.176 0.72019-2.0369 1.9605-4.175 3.8546-6.079 1.8493-1.7975 4.3206-2.8628 7.0517-3 37.641-0.56362 63.752 0.2172 63.824 2.2146 0.0724 1.9974-25.914 4.6664-63.497 6.8292-0.21558-0.0305-0.62104 0.24721-0.93063 0.55848-0.55616 0.48939-0.979 1.5028-1.4816 2.7557-1.189 3.2322-1.3369 7.1486-1.1133 11.34 0.32214 4.0777 1.0188 8.0883 2.7084 11.467 0.67792 1.2901 1.3062 2.3819 2.0436 2.9765 0.51469 0.38294 0.9739 0.70589 1.1543 0.61665 0.0397 0.003 0.0794 0.006 0.11906 0.008 17.699 1.2402 34.419 2.6002 49.236 3.9735 1.8565 0.28897 4.0212-0.4477 5.9909-1.5226 2.4343-1.3731 4.5159-3.4788 6.3462-5.737 2.226-2.845 3.9889-5.8342 5.228-8.7596s1.9563-5.7882 2.2262-8.4649c0.2185-1.7476 0.0311-3.4799-0.34093-5.0796-0.37204-1.5997-0.93006-3.0681-1.5301-4.358-0.82779-1.7056-1.7149-3.0165-2.6145-3.9373-0.91753-0.93272-1.8155-1.4993-2.466-1.8562-0.65048-0.35693-1.07-0.55793-1.0791-0.80982z"/>
    <path id="path3009" fill-rule="evenodd" d="m672.53 517.98c0.0101 0.21276-0.85082 0.44292-2.4867 0.81289-1.6359 0.36996-4.0511 0.88782-7.0985 1.8573-3.0474 0.96944-6.7345 2.4004-10.774 4.6408-4.0393 2.2403-8.4395 5.3003-12.651 9.4177v0.00001c-2.335 2.2937-4.7342 4.785-7.0511 7.5318-2.3169 2.7469-4.5522 5.7491-6.4898 9.0917-1.6477 2.8453-3.084 5.9008-3.9066 9.1505-0.73127 2.898-1.0089 5.9749-0.4874 8.9207 0.36751 2.6022 2.186 5.192 4.4584 7.548 1.0895 1.049 2.232 1.9607 3.4419 2.545 1.0117 0.42212 1.8648 0.76503 2.3769 0.60926 58.099-5.4918 136.35-12.269 222.42-19.155 12.523-1.0019 24.883-1.9797 37.04-2.931 0.51916 0.0177 1.209-0.33121 1.8673-0.80178 0.81397-0.58131 1.5687-1.5893 2.3768-2.7813 1.711-2.5826 2.8996-5.8315 4.2264-9.3162 1.6221-4.4099 2.7907-8.8524 3.1317-13.225 0.28873-4.311-0.0604-8.5118-1.7103-11.849-0.00001-0.00001-0.00001-0.00001-0.00001-0.00002-1.0139-2.16-2.5326-4.1098-4.3537-5.6129-1.796-1.2993-3.5795-2.3485-4.9185-2.1152-127.57 5.364-219.31 7.8468-219.41 5.6618-0.1035-2.1851 91.466-8.3856 218.97-15.104 4.5712-0.0466 8.5374 1.6722 11.389 4.1555 2.9506 2.3802 5.3658 5.4159 7.0256 8.8818 0 0.00001 0.00001 0.00002 0.00001 0.00003 2.4987 5.3918 3.203 11.238 2.728 16.738-0.42752 5.4996-1.7553 10.832-3.6138 15.87-1.2656 3.5521-2.7461 7.434-5.1201 11.244-1.1066 1.8042-2.5987 3.6369-4.5982 5.2598-1.9414 1.5662-4.403 2.6169-7.1911 2.8992-12.154 0.99364-24.512 1.9932-37.035 2.9951-86.072 6.8858-164.41 12.635-222.64 16.45-2.5155 0.0864-4.6438-0.57356-6.2744-1.5339-2.0187-1.105-3.7076-2.4966-5.1121-3.988-3.0088-3.0233-5.3327-6.9925-6.0236-11.463-0.52946-4.078-0.0528-8.0244 1.0224-11.584 1.1888-3.9404 2.9814-7.423 4.9716-10.506 2.3238-3.602 4.8885-6.7458 7.493-9.5523s5.2495-5.2754 7.8017-7.4954h0.00001c4.8023-4.2075 9.7398-7.1643 14.22-9.2008 4.4798-2.0365 8.5105-3.163 11.803-3.7857 3.2924-0.62261 5.8544-0.75075 7.5738-0.71637 1.7195 0.0344 2.6016 0.22421 2.6117 0.43697z"/>
    <path id="path3013" fill-rule="evenodd" d="m917.1 418.77c0.27848 0.81518-2.4811 2.6147-7.5492 5.0938-4.3912 2.2861-10.475 5.2508-17.412 9.2274-2.804 1.6161-5.748 3.3662-8.6738 5.3363s-5.8327 4.1603-8.5149 6.7088c-2.0525 1.9643-3.9435 4.024-5.2472 6.2964-1.0509 1.875-1.8262 3.8304-1.8365 5.632-0.0666 0.27001 0.0974 0.71518 0.35231 1.1922 0.0474 0.0886 0.0977 0.17809 0.15011 0.26743 0.4509 0.75991 1.3495 1.4998 2.4191 2.3138 2.421 1.772 5.4112 2.9889 8.5222 4.0429 2.2306 0.77524 4.6181 1.1652 7.0632 1.3728 2.4451 0.20765 4.9475 0.23331 7.4188 0.2319h0.00001c6.498-0.0632 12.511-0.68796 17.769-1.2756 6.2014-0.69626 11.31-1.3971 15.012-1.7571 2.0074-0.19524 3.5975-0.29383 4.7247-0.26092 0.58127 0.017 1.0382 0.0691 1.3654 0.16046 0.16534 0.0464 0.29734 0.10292 0.39529 0.16993 0.0759 0.12262 0.12368 0.18274 0.15253 0.2119 0.0286 0.0289 0.0387 0.0274 0.0394 0.0272h0.00002s0.00001 0-0.00002 0.00001c-0.00068 0.00025-0.01 0.005-0.0182 0.0443-0.008 0.0402-0.0156 0.11657-0.0126 0.2606-0.0467 0.10953-0.12929 0.22876-0.24681 0.35698-0.23086 0.25266-0.59755 0.5403-1.0928 0.85735-0.96044 0.61484-2.4088 1.3421-4.2984 2.1379-3.4846 1.4678-8.4822 3.1891-14.745 4.7709-5.2966 1.3413-11.542 2.6214-18.625 3.1982h-0.00001c-2.6276 0.23888-5.4513 0.37951-8.4308 0.24447-2.9794-0.13504-6.1148-0.54626-9.339-1.4538-3.7266-1.0554-7.6614-2.6344-11.389-5.1884-1.7367-1.1604-3.4894-2.7515-4.9859-4.8924-0.22507-0.32396-0.43497-0.66116-0.62863-1.0107-1.0424-1.8812-1.5996-4.0947-1.5468-6.4722 0.24839-3.9366 1.5586-7.4361 3.3914-10.303 2.1215-3.3598 4.6927-6.0542 7.2988-8.2713 3.349-2.865 6.8084-5.1908 10.191-7.149 3.3823-1.9583 6.6874-3.5498 9.7892-4.9068 7.7534-3.4186 14.471-5.4572 19.396-6.6066 5.5764-1.1572 8.8636-1.4235 9.1421-0.6083z"/>
    <path id="path3017" fill-rule="evenodd" d="m522.55 426.84c0.019 0.3648-1.8933 0.82586-5.5442 1.323-1.8255 0.24859-4.085 0.50461-6.7468 0.78054-2.6619 0.27594-5.7262 0.56986-9.153 0.94097-3.1456 0.34176-6.6013 0.73561-10.315 1.2778-3.7133 0.54225-7.6844 1.2316-11.837 2.2399-2.9554 0.73015-6.0098 1.5923-9.0179 2.7381s-5.9703 2.5748-8.6813 4.5019c-2.0791 1.4698-4.0023 3.2982-5.5648 5.4154s-2.7644 4.5234-3.3485 7.113c-0.31516 1.1059-0.0281 2.5345 0.5916 3.8096 0.72905 1.5338 2.1064 2.975 3.726 4.4596 3.3879 3.0323 7.7166 5.4305 12.434 7.8031 4.3768 2.2037 9.2268 3.7381 14.414 4.7534 5.187 1.0152 10.711 1.5113 16.379 1.7147 5.3629 0.16743 10.892 0.0408 16.591-0.14965 5.699-0.19044 11.568-0.44443 17.609-0.47718 20.726-0.11539 42.542-0.177 65.062-0.177 20.112 0 39.662 0.0491 58.377 0.14184 0.97039 0.0936 2.2299-0.43394 3.5873-1.1307 1.5025-0.8445 2.8738-2.0551 4.0693-3.4529 1.1646-1.4149 2.0993-2.8994 2.5787-4.3982 0.36165-1.3205 0.58283-2.5213 0.27083-3.2535-0.98516-3.5356-3.2633-6.7927-6.0268-9.5451-3.3885-3.3576-7.6232-5.9357-12.043-8.1497-6.1487-3.0647-12.535-5.2635-18.901-6.9934-6.3658-1.7299-12.711-2.991-18.839-4.0743-8.6918-1.5185-16.964-2.5459-24.696-3.3063-7.7321-0.76034-14.924-1.253-21.478-1.6268-13.081-1.1711-23.606-1.5718-31.032-1.7748-7.425-0.20298-11.754-0.2167-12.463-0.43156-0.004-0.0716-0.004-0.0718-0.004-0.0718s-0.00001-0.00019-0.004-0.0718c0.68319-0.28753 4.9914-0.80645 12.434-1.4573 7.4426-0.65083 18.024-1.4268 31.223-1.8791 6.6326-0.0131 13.938 0.11625 21.837 0.54533 7.8997 0.42907 16.394 1.1573 25.384 2.4178 6.3063 0.87086 12.933 1.9819 19.723 3.6503 6.7906 1.6684 13.746 3.8944 20.645 7.0995 5.015 2.3193 10.072 5.3276 14.55 9.5094 3.7732 3.5123 6.9426 8.0401 8.6697 13.43 0.87948 3.1888 0.68025 6.2903-0.2414 8.9146-0.9407 2.8663-2.425 5.4194-4.232 7.5807-1.7896 2.1947-3.9928 4.1499-6.5785 5.6816-2.285 1.4203-5.1498 2.4106-8.4365 2.5042-18.714 0.0927-38.265 0.14184-58.377 0.14184-22.52 0-44.336-0.0616-65.062-0.177-5.8014-0.0327-11.598 0.14606-17.366 0.25214-5.7682 0.10608-11.508 0.13919-17.196-0.13041-6.0338-0.25942-12.057-0.94036-17.837-2.2413-5.7796-1.3009-11.316-3.2218-16.431-5.8828-4.9247-2.5693-9.8038-5.5438-13.967-9.4118-2.0496-1.8682-3.9666-4.1848-5.321-6.9968-1.3152-2.7607-1.6624-5.9566-0.876-9.0499 1.0451-3.6211 2.7886-6.8264 4.945-9.552s4.7257-4.9717 7.4763-6.7088c3.4119-2.1385 6.9104-3.6461 10.332-4.7754 3.4215-1.1293 6.7664-1.8798 9.9275-2.4376 4.4509-0.8033 8.6237-1.2572 12.48-1.544 3.8562-0.28682 7.3961-0.40535 10.597-0.46009 3.4966-0.0614 6.5942-0.0352 9.2776 0.0171 2.6833 0.0523 4.9524 0.1328 6.7884 0.22719 3.672 0.1888 5.6148 0.43947 5.6338 0.80427z"/>
    <path id="path3021" fill-rule="evenodd" d="m852.49 456.84c0.0587 2.7594-36.33 5.7741-81.225 6.7293-44.895 0.95521-81.379-0.50903-81.438-3.2684-0.0587-2.7594 36.33-5.7741 81.225-6.7293 44.895-0.95521 81.379 0.50903 81.438 3.2684z"/>
    <path id="path3025" fill-rule="evenodd" d="m521.4 425.69c-0.24652 0.2061-1.2904-0.57437-3.1081-2.1816-1.8176-1.6073-4.4141-4.0386-7.8529-7.0529s-7.7256-6.6093-12.93-10.503c-5.2044-3.8932-11.331-8.0828-18.376-12.278-6.6208-3.9426-14.05-7.8941-22.241-11.711-8.1918-3.8168-17.148-7.4979-26.739-10.992h-0.00001c-13.844-5.0443-28.991-9.6671-45.14-13.995-16.149-4.3282-33.3-8.3677-51.012-12.604-3.7048-0.88607-7.3876-1.7708-11.044-2.6595-20.482-4.972-40.325-9.2203-58.935-13.173-23.318-4.9518-44.687-9.3434-63.164-13.192-20.884-4.3503-38.074-7.9924-50.254-10.78-13.109-2.9702-20.408-5.0035-20.286-5.7768v-0.00002l0.0003-0.002 0.00031-0.002v-0.00001c0.14527-0.76934 7.6995-0.19603 21.045 1.476 12.403 1.5808 29.805 4.157 50.884 7.645 18.645 3.0852 40.173 6.8738 63.644 11.429 18.719 3.632 38.715 7.7035 59.408 12.669 3.6463 0.87373 7.3233 1.75 11.027 2.6341 17.705 4.2268 34.951 8.41 51.252 13.005 16.301 4.5955 31.655 9.6086 45.682 15.125h0.00001c9.7217 3.8244 18.801 7.9035 27.079 12.155 8.2782 4.2514 15.757 8.6735 22.368 13.095 7.043 4.71 13.082 9.4347 18.115 13.848 5.0332 4.4132 9.0657 8.5125 12.181 12.001 3.1155 3.4889 5.3196 6.365 6.7003 8.3965 1.3807 2.0316 1.943 3.2163 1.6965 3.4224z"/>
    <path id="path3029" fill-rule="evenodd" d="m322.98 324.17c-1.1352 0.19153-3.2698-5.9282-5.6973-16.417-1.2138-5.2446-2.4963-11.579-3.8045-18.737-1.3082-7.1584-2.6414-15.14-4.0312-23.67-1.106-6.7754-2.2428-13.852-3.7072-21.023-0.053-0.25972-0.1064-0.51898-0.1601-0.77777-1.2353-5.9114-2.5957-11.499-4.4518-16.564-1.626-4.3836-3.5264-8.3313-5.9628-11.488v-0.00001c-2.3886-3.1473-5.3728-5.6324-8.4979-7.3542-2.1392-1.2007-4.3879-2.0774-6.6164-2.7615-2.2285-0.68407-4.4368-1.1752-6.5329-1.5652-2.9445-0.53892-5.6612-0.86205-8.0685-1.1108-2.4073-0.24872-4.5054-0.42179-6.2298-0.59898-3.4488-0.35437-5.3993-0.74587-5.4576-1.3715-0.0583-0.62567 1.7706-1.4356 5.2499-2.1936 1.7396-0.379 3.8935-0.739 6.436-0.98916 2.5426-0.25016 5.4744-0.39162 8.7642-0.26802 2.3566 0.0833 4.9147 0.32461 7.6192 0.85297s5.5558 1.3438 8.4598 2.6164c4.309 1.924 8.5056 4.9197 11.97 8.9859v0.00001c3.3833 4.0157 6.0069 8.7748 7.962 13.775 2.2613 5.7237 3.8709 11.826 5.1468 18 0.0564 0.2709 0.1122 0.54214 0.16753 0.8137 1.5274 7.4978 2.5729 14.769 3.4547 21.63v0.00001c1.1105 8.6216 1.9892 16.676 2.7026 23.907 0.71332 7.2314 1.2609 13.641 1.6346 18.985 0.74739 10.688 0.7857 17.132-0.34945 17.324z"/>
    <path id="path3033" fill-rule="evenodd" d="m545.63 209.96c-0.0651 0.521-6.0649 0.25618-17.11-0.62904s-27.142-2.411-47.406-3.9707c-10.132-0.77985-21.305-1.5592-33.4-2.1957-12.095-0.63653-25.112-1.1305-38.923-1.2867-13.812-0.15612-28.418 0.0258-43.684 0.79489-15.266 0.76913-31.19 2.1261-47.63 4.3687 2.8781 7.394 6.0409 14.891 9.1751 22.582 3.0275 10.664 6.0084 21.605 8.7253 32.846 2.7945 11.557 5.329 23.449 7.2046 35.684 0.79969 10.222 1.0779 20.806-0.0583 31.653 2.6494-0.31498 5.3061-0.61706 7.9699-0.90648 32.736-3.5567 64.528-4.9989 94.768-5.4421 30.24-0.44315 58.928 0.10088 85.506 0.83696 27.911 1.0803 53.524 2.3224 76.249 3.2606 22.725 0.93819 42.562 1.5837 58.921 1.9662 16.359 0.38259 29.241 0.52368 38.043 0.6986 8.8014 0.17492 13.522 0.40671 13.542 0.87182 0.0192 0.46511-4.6666 1.134-13.465 1.8141-8.7979 0.68009-21.709 1.3483-38.122 1.7127-16.414 0.36438-36.331 0.40347-59.117 0.0702-22.787-0.33332-48.443-1.0502-76.319-1.7027-27.23-0.93522-56.657-1.9127-87.614-2.09s-63.44 0.45761-96.738 3.1049c-2.7095 0.21542-5.4108 0.44321-8.1037 0.68369-0.71407-11.738-2.7809-23.465-5.2857-35.042-1.7782-11.868-4.208-23.502-6.8914-34.904-2.6086-11.079-5.4811-21.924-8.399-32.551-1.7078-9.6492-3.5228-19.145-5.1372-28.539 17.125-2.6243 33.67-4.302 49.485-5.322 15.815-1.0201 30.9-1.3832 45.122-1.3348 14.221 0.0484 27.579 0.50814 39.952 1.1831 12.373 0.67493 23.761 1.5652 34.056 2.5236 20.589 1.9166 36.798 4.0728 47.837 5.7737s16.915 2.9661 16.85 3.4871z"/>
    <path id="path3041" fill-rule="evenodd" d="m297.6 448.76c-0.7999 2.6415-38.144-6.3264-83.357-20.018-45.213-13.691-81.259-26.947-80.459-29.589 0.7999-2.6415 38.144 6.3264 83.357 20.018 45.213 13.691 81.259 26.947 80.459 29.589z"/>
    <path id="path3112" d="m768.86 433.84-2.3936 5.3706 3.943 5.3706 2.3992-5.332zm1.5493 10.741h-6.182l-2.3331 5.2547h6.182zh6.182l3.849 5.2547h-6.182z" fill="#800000"/>
    <path id="path3095" fill-rule="evenodd" d="m445.42 594.62c0.54901 0.20262-0.69197 5.1866-3.5027 14.284-0.85991 1.6668-1.9467 3.4329-3.3476 5.188s-3.116 3.5004-5.2476 5.0546c-2.0179 1.4198-4.3645 2.5817-6.971 3.3703-2.6065 0.78865-5.4739 1.2038-8.4584 1.132-5.2817-0.0949-11.056 0.099-17.334 0.25588-6.1492 0.15636-12.749 0.3107-19.786 0.12464-5.9778-0.15106-12.351-0.52477-18.99-1.8087-4.951-0.89114-10.404-2.4627-15.36-6.0456-2.5174-1.9146-4.5765-4.2192-6.2566-6.6308-2.0128-2.8549-3.6691-5.9137-5.0781-9.0315-3.3785-7.4635-5.6975-15.53-7.4393-23.771-1.9794-9.2955-3.2693-18.996-3.9845-28.942-0.72603-10.051-0.87162-20.408-0.32332-30.952 0.5038-9.7578 1.6007-19.731 3.6533-29.734 0.69287-3.4054 1.5037-6.8361 2.4794-10.26 1.4711-5.1622 3.2984-10.235 5.6078-15.114 3.0589-6.6198 7.3894-13.096 13.595-17.905 2.7827-2.1161 5.9726-3.7554 9.4284-4.734 3.6274-0.99507 7.3396-1.2005 10.895-0.74667 4.4871 0.55925 8.8193 1.9626 12.732 4.1143 3.9591 2.1993 7.3756 5.0471 10.235 8.2282 3.1635 3.5174 5.7088 7.3649 7.791 11.288 2.3747 4.4622 4.2206 9.038 5.7122 13.581 3.555 10.834 5.3417 21.591 6.3597 31.78 1.225 12.159 1.343 23.663 0.90586 34.286-0.48545 11.867-1.6876 22.693-3.3011 32.252-0.83496 4.9654-1.7728 9.6226-2.8337 13.904-1.0609 4.2818-2.2433 8.1887-3.502 11.688-1.194 3.3273-2.5055 6.3297-3.9509 8.8722-0.61242 1.1026-1.2801 2.162-2.012 3.1034-0.73184 0.94146-1.5272 1.7658-2.3696 2.4438-0.72721 0.59137-1.5684 1.0513-2.4454 1.3054-0.90284 0.25338-1.7939 0.21393-2.5597-0.0149-1.0352-0.33412-1.7279-0.90224-2.2188-1.4308-0.74778-0.79773-1.1172-1.5041-1.3195-1.9954-0.20237-0.4913-0.22753-0.77852-0.11831-0.85101 0.10922-0.0725 0.35442 0.073 0.74648 0.3878 0.39206 0.31483 0.92693 0.81361 1.6825 1.2774h0.00001c0.49226 0.29644 1.0732 0.59264 1.6782 0.63165 0.41917 0.0408 0.89442-0.0436 1.3324-0.25335 0.4659-0.2099 0.92581-0.59643 1.4066-1.0859 1.1576-1.1873 2.0851-2.9448 3.0619-5.1008 1.0755-2.4511 2.0185-5.3316 2.9113-8.6086v-0.00001c0.93544-3.4454 1.7975-7.2711 2.5518-11.466 0.75426-4.195 1.3992-8.7601 1.9697-13.66 1.0875-9.3999 1.8004-19.99 1.8614-31.572 0.0521-10.368-0.39643-21.508-1.8723-33.16-1.2472-9.7812-3.1336-19.906-6.6053-29.804-1.4508-4.1383-3.1612-8.2074-5.2923-12.049-1.8752-3.3698-4.0313-6.5642-6.6026-9.3206-2.3078-2.4714-4.9291-4.6321-7.8286-6.1732-2.827-1.5241-6.0086-2.5136-9.2814-2.8943-2.3985-0.26737-4.8304-0.13251-7.0497 0.51955-2.1351 0.59651-4.215 1.7079-6.1123 3.1441-4.4554 3.2835-7.7475 8.5423-10.563 14.299-2.0353 4.275-3.6581 8.8301-4.9991 13.568-0.88937 3.1421-1.6473 6.3349-2.3199 9.5452-1.9524 9.4006-3.0256 18.883-3.5759 28.258-0.59024 10.123-0.5382 20.083 0.0496 29.77 0.58531 9.5924 1.6808 18.88 3.4156 27.734 1.5588 7.8868 3.5176 15.359 6.413 22.082 1.205 2.7927 2.5241 5.4066 4.088 7.7185 1.3322 1.9399 2.7257 3.6514 4.3069 4.8723 3.1049 2.5837 7.4763 3.8409 11.931 4.9282 5.9125 1.3561 11.89 1.8963 17.692 2.2771 6.7947 0.43849 13.305 0.55815 19.447 0.69298 6.2392 0.13496 12.146 0.254 17.61 0.67705 2.4064 0.18803 4.7525 0.0128 6.9003-0.46795 2.1478-0.48076 4.0982-1.2668 5.7854-2.289 1.8108-1.0441 3.355-2.3449 4.6828-3.7139s2.4391-2.8075 3.3806-4.1974c3.6737-8.4733 5.9638-13.057 6.5128-12.855z"/>
    <path id="path3553" fill-rule="evenodd" d="m140.94 484.83c0.0237 0.003 0.047 0.01 0.0697 0.0213 0.0212 0.0109 0.042 0.0259 0.0622 0.0449 0.04 0.0375 0.078 0.0906 0.11382 0.15915 0.0696 0.13374 0.13075 0.32697 0.18087 0.57715 0.0943 0.47057 0.15019 1.1469 0.14198 2.016-0.013 1.4888-0.18604 3.5668-0.88107 6.1442-0.50213 1.9341-1.3204 4.26-3.22 6.5506-1.5833 1.8697-4.1034 3.3463-7.3014 3.315h-0.00001c-2.004-0.0347-4.1848 0.0756-6.5772 0.2026-2.3924 0.12701-4.9968 0.27217-7.8518 0.18032-2.4543-0.0661-5.1582-0.32366-8.0244-1.1653-2.4178-0.67225-4.9628-2.0155-7.1038-4.3778-2.5745-3.1493-3.9379-6.7986-4.8187-10.029-1.4157-4.6669-2.3826-9.6054-3.1223-14.645-1.6836-11.375-2.3784-23.827-2.0185-36.86 0.16072-5.9563 0.55629-12.084 1.3491-18.319 0.44431-3.5381 1.0226-7.1607 1.8609-10.817 0.37576-1.6387 0.80106-3.2712 1.285-4.8925 1.0368-3.7686 2.6681-7.9143 5.6536-11.651 0-0.00001 0-0.00001 0.00001-0.00001 1.1149-1.4232 2.7177-2.7628 4.8174-3.7687h0.00002c2.081-0.89666 4.2973-1.1266 6.4306-0.7114 2.6008 0.55933 4.8184 1.7425 6.5442 3.2942 1.9837 1.7834 3.4369 3.7665 4.5029 5.7134 2.9108 5.2546 4.345 10.672 5.2998 15.673 1.357 6.8177 1.9676 13.404 2.2806 19.618v0.00001c0.38427 7.5209 0.31774 14.595 0.0237 21.121-0.3287 7.3223-0.95483 13.988-1.7535 19.859-0.83168 6.1323-1.8675 11.465-3.0539 15.754-0.56326 2.0416-1.1775 3.8908-1.85 5.4669-0.52929 1.2871-1.2011 2.5536-2.0181 3.4922-0.28418 0.35831-0.72165 0.72068-1.2483 0.97662-0.53153 0.24781-1.1094 0.22232-1.6135 0.0167h-0.00001c-0.63356-0.34667-0.89835-0.75616-1.035-1.0888h-0.00001c-0.2696-0.57316-0.33117-1.012-0.33169-1.3167-0.00052-0.30466 0.0696-0.47811 0.18872-0.52796 0.11911-0.0498 0.28829 0.0283 0.50992 0.20657 0.22162 0.17825 0.49152 0.46577 0.84768 0.72537 0.21654 0.13736 0.4093 0.27409 0.4773 0.18054-0.0441-0.0397-0.059-0.11094-0.10317-0.1301 0.0511-0.0606 0.0981-0.23945 0.2465-0.49503 0.36844-0.74358 0.57252-1.7493 0.87041-3.0609 0.31143-1.5151 0.56746-3.274 0.81287-5.2914 0.51031-4.2278 0.8962-9.4051 1.1593-15.46 0.24707-5.7701 0.36607-12.282 0.24987-19.42-0.10467-6.3611-0.38655-13.198-1.0544-20.388v-0.00001c-0.55759-5.9586-1.3334-12.12-2.7506-18.284-1.0977-4.6036-2.3133-9.0976-4.5561-12.785-0.8087-1.3056-1.606-2.4385-2.5067-3.1497-0.70018-0.5465-1.4105-0.96591-1.9984-1.0192-0.18785-0.0307-0.43761-0.008-0.53286 0.0679h-0.00001c-0.26543 0.0508-0.65831 0.4928-1.2132 1.0797v0.00001c-1.6614 1.8569-2.627 4.8166-3.7212 8.1681-0.41674 1.3879-0.78526 2.8075-1.115 4.2548-0.73579 3.2291-1.2671 6.5394-1.7175 9.8759-0.77843 5.8385-1.2113 11.652-1.4562 17.372-0.52933 12.567-0.19306 24.488 0.99793 35.39 0.53528 4.8415 1.2008 9.3909 2.2532 13.574 0.88953 3.1174 1.5004 5.7621 2.8375 7.3586 0.63211 1.0021 1.9927 1.7431 3.4867 2.3758 1.8899 0.74501 4.0326 1.0837 6.2105 1.3493 2.454 0.28832 4.9276 0.35963 7.3437 0.46351s4.7745 0.23884 7.0125 0.52839c1.1648 0.30224 2.5912-0.30503 3.6056-1.1492 0.73777-0.61776 1.34-1.384 1.8655-2.184 0.5255-0.79999 0.97375-1.6343 1.3787-2.4318 1.0502-2.117 1.6977-3.9622 2.2129-5.2924 0.2999-0.77543 0.54589-1.3785 0.76026-1.7936 0.11397-0.22074 0.21868-0.38731 0.31649-0.49872 0.0503-0.0575 0.0987-0.10004 0.14559-0.12758 0.0237-0.014 0.0471-0.024 0.07-0.0302 0.0246-0.007 0.0487-0.009 0.0725-0.006z"/>
    <path id="path3557" fill-rule="evenodd" d="m844.58 588.85c1.1339 0.41846 0.28057 5.9267-2.14 14.931-0.85445 1.8149-1.968 3.7351-3.4283 5.6413s-3.2678 3.7986-5.5111 5.4997c-2.2165 1.5842-4.7753 2.8617-7.5765 3.7152s-5.8447 1.2825-8.9653 1.1924c-5.339-0.10339-11.109 0.0406-17.237 0.0774-1.2334 0.008-2.4788 0.013-3.7355 0.0124-5.5195-0.003-10.927-0.11625-16.108-0.45394-3.3801-0.2155-6.6929-0.52619-9.8766-0.98004s-6.2378-1.0509-9.1084-1.7982c-2.8702-0.70692-5.6658-1.651-8.165-2.8502-2.4993-1.1992-4.7027-2.6511-6.5124-4.2594-1.8289-1.7053-3.1166-3.44-4.0723-5.0205-0.95567-1.5806-1.5784-3.0099-1.9914-4.2012-0.41302-1.1912-0.61491-2.1472-0.6603-2.8336-0.0454-0.68639 0.0672-1.1048 0.32922-1.2396 0.52404-0.2695 1.5911 0.64641 3.2217 2.3241 0.81532 0.83886 1.7746 1.8629 2.9153 2.9308s2.4611 2.182 4.0459 3.0881c1.5157 0.93556 3.3242 1.7079 5.438 2.3272 2.1138 0.61928 4.535 1.0846 7.1756 1.5369 5.2255 0.81216 11.173 1.1388 17.697 1.3076 4.9652 0.12044 10.213 0.11802 15.677 0.12098 1.2439 0.00068 2.4819 0.002 3.713 0.006 6.0686 0.0154 12.037 0.0713 17.708 0.49855 2.159 0.1644 4.286 0.0332 6.249-0.36929 1.963-0.40246 3.762-1.0763 5.3242-1.9824 1.6283-0.85055 3.0689-1.9694 4.3472-3.1863s2.394-2.532 3.372-3.8267c3.8326-7.94 6.7416-12.626 7.8755-12.208z"/>
  </g>
  <metadata>
    <rdf:RDF>
      <cc:Work>
        <dc:format>image/svg+xml</dc:format>
        <dc:type rdf:resource="http://purl.org/dc/dcmitype/StillImage"/>
        <cc:license rdf:resource="http://creativecommons.org/licenses/publicdomain/"/>
        <dc:publisher>
          <cc:Agent rdf:about="http://openclipart.org/">
            <dc:title>Openclipart</dc:title>
          </cc:Agent>
        </dc:publisher>
        <dc:title>silhouetteColtCA</dc:title>
        <dc:date>2013-04-02T12:57:37</dc:date>
        <dc:description>car, clip art, clipart, colt, mitsubishi, silhouette, vechicle, </dc:description>
        <dc:source>http://openclipart.org/detail/176710/silhouettecoltca-by-koconmus-176710</dc:source>
        <dc:creator>
          <cc:Agent>
            <dc:title>koconmus</dc:title>
          </cc:Agent>
        </dc:creator>
        <dc:subject>
          <rdf:Bag>
            <rdf:li>car</rdf:li>
            <rdf:li>clip art</rdf:li>
            <rdf:li>clipart</rdf:li>
            <rdf:li>colt</rdf:li>
            <rdf:li>mitsubishi</rdf:li>
            <rdf:li>silhouette</rdf:li>
            <rdf:li>vechicle</rdf:li>
          </rdf:Bag>
        </dc:subject>
      </cc:Work>
      <cc:License rdf:about="http://creativecommons.org/licenses/publicdomain/">
        <cc:permits rdf:resource="http://creativecommons.org/ns#Reproduction"/>
        <cc:permits rdf:resource="http://creativecommons.org/ns#Distribution"/>
        <cc:permits rdf:resource="http://creativecommons.org/ns#DerivativeWorks"/>
      </cc:License>
    </rdf:RDF>
  </metadata>
</svg>
